<?xml version="1.0" standalone="no"?>
<!DOCTYPE svg PUBLIC "-//W3C//DTD SVG 20010904//EN"
 "http://www.w3.org/TR/2001/REC-SVG-20010904/DTD/svg10.dtd">
<svg version="1.0" xmlns="http://www.w3.org/2000/svg"
 width="137.000000pt" height="71.000000pt" viewBox="0 0 137.000000 71.000000"
 preserveAspectRatio="xMidYMid meet">
<metadata>
Created by potrace 1.10, written by Peter Selinger 2001-2011
</metadata>
<g transform="translate(0.000000,71.000000) scale(0.100000,-0.100000)"
fill="#000000" stroke="none">
<path d="M398 650 c34 -33 66 -60 72 -60 5 0 10 -4 10 -9 0 -8 24 -20 150 -79
26 -13 54 -19 68 -16 42 12 22 -15 -28 -37 -27 -12 -54 -27 -60 -34 -13 -16
-20 -104 -9 -111 5 -2 5 -12 2 -20 -10 -27 36 -49 107 -50 36 -1 70 2 75 6 6
4 23 8 38 8 33 -1 42 7 51 43 4 18 1 31 -10 40 -14 11 -15 9 -9 -23 6 -31 4
-37 -15 -43 -15 -5 -26 -2 -31 6 -8 11 -11 11 -20 -3 -7 -13 -23 -18 -54 -18
-38 0 -43 3 -38 18 6 16 5 16 -14 0 -26 -24 -37 -23 -30 2 6 23 -3 26 -21 8
-9 -9 -12 -8 -14 8 -9 112 -8 113 65 150 46 24 50 24 67 9 22 -19 61 -16 68 5
4 13 3 13 -11 2 -11 -10 -21 -11 -35 -3 -39 21 -43 35 -22 77 18 36 24 40 60
41 39 2 40 1 34 -25 -4 -15 -11 -37 -15 -49 -7 -20 -4 -23 29 -33 20 -5 50
-10 65 -10 45 0 100 -27 93 -46 -4 -10 -1 -14 6 -12 7 3 14 12 16 21 4 20 -39
42 -98 51 -78 12 -100 17 -100 25 0 4 32 22 72 41 40 18 83 43 97 56 14 13 29
24 32 24 3 0 19 11 35 25 15 13 41 30 56 36 15 6 28 15 28 20 0 12 -1 12 -44
-6 -71 -30 -129 -37 -162 -20 -16 8 -36 15 -45 15 -8 0 -20 5 -26 11 -12 12
-65 15 -82 5 -6 -4 -11 -13 -11 -20 0 -17 -43 -46 -66 -46 -10 0 -71 16 -135
36 -65 19 -128 34 -141 32 -15 -3 13 -16 82 -37 58 -19 107 -37 110 -41 3 -4
24 -10 47 -14 43 -6 93 8 93 27 0 6 3 7 7 4 3 -4 12 1 20 11 8 9 12 12 9 6 -3
-7 1 -14 9 -18 8 -3 15 -1 15 5 0 6 5 7 10 4 6 -4 8 -10 5 -15 -3 -4 2 -11 11
-14 24 -9 92 -7 98 3 3 5 17 9 31 9 26 0 26 -1 -6 -22 -48 -32 -93 -55 -105
-56 -7 0 -14 9 -17 20 -3 11 -14 20 -26 21 -12 1 -32 1 -45 2 -28 1 -56 -19
-56 -40 0 -8 -5 -11 -12 -7 -7 4 -8 3 -4 -4 3 -6 -2 -16 -13 -21 -27 -15 -37
-14 -55 5 -12 12 -16 12 -16 2 0 -8 -4 -7 -11 5 -5 9 -18 17 -29 17 -10 0 -25
6 -32 13 -7 8 -19 12 -26 9 -6 -2 -15 3 -18 12 -3 9 -9 14 -13 11 -4 -2 -22 9
-40 25 -18 17 -36 30 -41 30 -5 0 -12 9 -15 20 -3 11 -13 20 -21 20 -8 0 -12
5 -9 10 4 6 -6 10 -21 10 -27 0 -25 -3 34 -60z m452 24 c0 -17 -22 -14 -28 4
-2 7 3 12 12 12 9 0 16 -7 16 -16z m104 -23 c3 -5 -13 -11 -37 -13 -47 -5 -52
-4 -42 11 8 13 72 15 79 2z"/>
<path d="M276 575 c-30 -120 -56 -162 -101 -171 -21 -4 -34 -11 -32 -18 3 -6
11 -9 18 -7 8 2 23 6 33 9 19 5 18 4 -2 -25 -12 -17 -22 -36 -22 -43 0 -21 20
1 44 49 14 26 35 52 49 58 23 11 25 10 36 -43 11 -48 25 -73 36 -62 2 2 -6 30
-17 63 -18 56 -19 60 -2 72 9 7 22 14 28 16 6 2 8 8 4 12 -4 4 -14 2 -23 -5
-22 -19 -29 -6 -36 63 -4 54 -6 58 -13 32z m-5 -128 c-18 -18 -23 -1 -9 29 13
28 13 28 16 5 2 -13 -1 -28 -7 -34z"/>
<path d="M372 553 c-11 -29 -6 -175 7 -207 18 -44 25 -23 11 35 -8 32 -10 78
-6 120 6 68 2 86 -12 52z"/>
<path d="M424 405 c-23 -35 -3 -69 37 -63 20 3 29 0 29 -9 0 -7 5 -13 11 -13
6 0 8 7 5 16 -3 9 -6 33 -6 53 0 35 -2 38 -30 39 -22 0 -35 -6 -46 -23z m57
-11 c11 -14 10 -18 -6 -30 -24 -18 -34 -18 -41 1 -6 15 11 45 26 45 4 0 14 -7
21 -16z"/>
<path d="M533 423 c-23 -9 -15 -42 12 -49 36 -9 32 -28 -5 -21 -23 5 -28 3
-23 -8 9 -26 73 -16 73 11 0 8 -11 20 -25 26 -30 14 -33 28 -5 28 11 0 20 5
20 10 0 10 -26 12 -47 3z"/>
<path d="M983 373 c2 -30 -15 -35 -58 -17 -18 7 -18 6 -6 -9 18 -22 7 -47 -21
-47 -17 0 -19 -3 -10 -12 18 -18 66 7 59 31 -3 14 0 17 17 14 28 -6 50 20 41
47 -9 29 -24 25 -22 -7z"/>
<path d="M203 278 c-45 -22 -68 -132 -37 -176 18 -26 74 -30 93 -8 11 13 15
12 32 -5 22 -22 32 -23 60 -9 29 16 26 77 -5 91 -28 13 -61 -1 -70 -29 -5 -15
-54 -52 -69 -52 -3 0 -13 7 -21 16 -38 37 -4 159 44 159 18 0 24 -5 22 -17 -3
-22 14 -24 22 -3 6 16 -19 45 -37 44 -7 0 -22 -5 -34 -11z m147 -133 c18 -22
8 -50 -19 -50 -32 0 -49 28 -32 49 17 20 35 20 51 1z"/>
<path d="M963 215 c0 -8 4 -12 9 -9 5 3 6 10 3 15 -9 13 -12 11 -12 -6z"/>
<path d="M380 143 c0 -36 3 -63 7 -59 12 11 15 126 3 126 -6 0 -10 -28 -10
-67z"/>
<path d="M644 173 c3 -21 6 -52 6 -70 0 -31 2 -32 36 -29 20 1 40 9 45 17 7
11 9 11 9 -3 0 -10 4 -18 8 -18 5 0 9 27 9 60 1 33 -3 60 -8 60 -6 0 -9 -6 -8
-12 4 -33 -2 -37 -22 -17 -13 13 -27 18 -40 14 -15 -5 -19 -2 -19 14 0 12 -5
21 -11 21 -8 0 -10 -13 -5 -37z m70 -29 c19 -19 20 -26 4 -42 -23 -23 -48 -14
-48 16 0 44 17 54 44 26z"/>
<path d="M420 160 c-11 -11 -20 -27 -20 -35 0 -17 35 -55 50 -55 6 0 22 11 35
25 23 22 25 23 25 5 0 -11 4 -20 10 -20 5 0 7 12 4 28 -5 31 8 58 25 48 6 -4
11 -23 11 -42 0 -43 18 -45 22 -2 2 22 9 34 21 36 14 3 17 -4 17 -38 0 -25 4
-39 10 -35 15 9 12 58 -4 81 -12 16 -18 17 -35 7 -15 -10 -22 -9 -30 1 -6 8
-23 14 -37 14 -22 0 -25 -4 -20 -24 l6 -23 -24 24 c-30 30 -40 31 -66 5z m60
-21 c14 -24 -2 -49 -31 -49 -28 0 -43 35 -23 54 21 22 41 20 54 -5z"/>
<path d="M792 169 c-52 -19 -29 -87 27 -79 8 1 17 -4 22 -11 13 -21 16 -8 11
48 -4 54 -12 60 -60 42z m42 -32 c8 -13 7 -20 -4 -27 -35 -22 -65 5 -40 35 15
18 29 15 44 -8z"/>
<path d="M861 164 c-1 -34 11 -84 20 -84 5 0 9 15 9 34 0 64 45 52 52 -14 4
-35 4 -35 15 -10 7 14 12 20 12 14 1 -18 30 -25 51 -14 14 8 20 6 23 -8 3 -9
5 9 6 40 l1 57 -32 -4 c-18 -2 -40 -14 -49 -26 l-16 -22 -6 22 c-6 23 -50 30
-63 9 -5 -8 -10 -6 -15 8 -7 18 -8 18 -8 -2z m164 -34 c0 -29 -32 -41 -41 -16
-9 24 4 48 23 44 12 -2 18 -12 18 -28z"/>
<path d="M1088 173 c-28 -7 -22 -42 9 -54 19 -7 23 -13 15 -21 -8 -8 -15 -8
-27 2 -17 14 -31 8 -20 -9 7 -12 35 -14 59 -5 26 10 18 34 -14 45 -32 12 -32
29 1 29 11 0 17 5 14 10 -6 10 -9 11 -37 3z"/>
</g>
</svg>
