<svg xmlns="http://www.w3.org/2000/svg" width="100.056" height="63" viewBox="0 0 100.056 63">
  <g id="yrb2cB01" transform="translate(-14.046 69.838)">
    <path id="Path_48" data-name="Path 48" d="M39.149-63.937c3.344,3.246,6.492,5.9,7.082,5.9a.97.97,0,0,1,.984.885c0,.787,2.361,1.967,14.755,7.771,2.557,1.279,5.312,1.869,6.689,1.574,4.131-1.18,2.164,1.475-2.754,3.639-2.656,1.18-5.312,2.656-5.9,3.344-1.279,1.574-1.967,10.23-.885,10.918.492.2.492,1.18.2,1.967-.984,2.656,3.541,4.82,10.525,4.918,3.541.1,6.885-.2,7.377-.59a8.479,8.479,0,0,1,3.738-.787c3.246.1,4.131-.689,5.017-4.23.393-1.771.1-3.049-.984-3.935-1.377-1.082-1.475-.885-.885,2.262.59,3.049.393,3.639-1.475,4.23-1.475.492-2.557.2-3.049-.59-.787-1.082-1.082-1.082-1.967.3-.689,1.279-2.262,1.771-5.312,1.771-3.738,0-4.23-.3-3.738-1.771.59-1.574.492-1.574-1.377,0-2.557,2.361-3.639,2.262-2.951-.2.59-2.262-.3-2.557-2.066-.787-.885.885-1.18.787-1.377-.787C59.9-39.149,60-39.247,67.183-42.887c4.525-2.361,4.918-2.361,6.59-.885,2.164,1.869,6,1.574,6.689-.492.393-1.279.3-1.279-1.082-.2a2.558,2.558,0,0,1-3.443.3c-3.836-2.066-4.23-3.443-2.164-7.574,1.771-3.541,2.361-3.935,5.9-4.033,3.836-.2,3.935-.1,3.344,2.459-.393,1.475-1.082,3.639-1.475,4.82-.689,1.967-.393,2.262,2.853,3.246a33.847,33.847,0,0,0,6.394.984c4.426,0,9.836,2.656,9.148,4.525-.393.984-.1,1.377.59,1.18a3.135,3.135,0,0,0,1.574-2.066c.393-1.967-3.836-4.131-9.64-5.017-7.672-1.18-9.836-1.672-9.836-2.459,0-.393,3.148-2.164,7.082-4.033,3.935-1.771,8.164-4.23,9.541-5.508A12.553,12.553,0,0,1,102.4-60a14.215,14.215,0,0,0,3.443-2.459A24.743,24.743,0,0,1,111.348-66c1.475-.59,2.754-1.475,2.754-1.967,0-1.18-.1-1.18-4.328.59-6.984,2.951-12.689,3.639-15.935,1.967a13.538,13.538,0,0,0-4.426-1.475,4.26,4.26,0,0,1-2.557-1.082c-1.18-1.18-6.394-1.475-8.066-.492a2.672,2.672,0,0,0-1.082,1.967c0,1.672-4.23,4.525-6.492,4.525-.984,0-6.984-1.574-13.279-3.541-6.394-1.869-12.591-3.344-13.869-3.148-1.475.3,1.279,1.574,8.066,3.639,5.705,1.869,10.525,3.639,10.82,4.033s2.361.984,4.623,1.377c4.23.59,9.148-.787,9.148-2.656,0-.59.3-.689.689-.393.3.393,1.18-.1,1.967-1.082.787-.885,1.18-1.18.885-.59-.3.689.1,1.377.885,1.771.787.3,1.475.1,1.475-.492s.492-.689.984-.393a1.084,1.084,0,0,1,.492,1.475c-.3.393.2,1.082,1.082,1.377,2.361.885,9.049.689,9.64-.3.3-.492,1.672-.885,3.049-.885,2.557,0,2.557.1-.59,2.164-4.721,3.148-9.148,5.41-10.328,5.508-.689,0-1.377-.885-1.672-1.967a2.973,2.973,0,0,0-2.557-2.066c-1.18-.1-3.148-.1-4.426-.2-2.754-.1-5.508,1.869-5.508,3.935,0,.787-.492,1.082-1.18.689s-.787-.3-.393.393c.3.59-.2,1.574-1.279,2.066-2.656,1.475-3.639,1.377-5.41-.492-1.18-1.18-1.574-1.18-1.574-.2,0,.787-.393.689-1.082-.492A3.63,3.63,0,0,0,59.018-54.1a5.278,5.278,0,0,1-3.148-1.279,2.56,2.56,0,0,0-2.557-.885,1.6,1.6,0,0,1-1.771-1.18c-.3-.885-.885-1.377-1.279-1.082-.393.2-2.164-.885-3.935-2.459-1.771-1.672-3.541-2.951-4.033-2.951s-1.18-.885-1.475-1.967a2.605,2.605,0,0,0-2.066-1.967c-.787,0-1.18-.492-.885-.984.393-.59-.59-.984-2.066-.984C33.149-69.838,33.345-69.543,39.149-63.937ZM83.609-66.3c0,1.672-2.164,1.377-2.754-.393-.2-.689.3-1.18,1.18-1.18A1.554,1.554,0,0,1,83.609-66.3Zm10.23,2.262c.3.492-1.279,1.082-3.639,1.279-4.623.492-5.115.393-4.131-1.082C86.855-65.117,93.151-65.314,93.839-64.035Z" fill="#7bbe4a"/>
    <path id="Path_49" data-name="Path 49" d="M27.148-56.559c-2.951,11.8-5.508,15.935-9.935,16.82-2.066.393-3.344,1.082-3.148,1.771a1.536,1.536,0,0,0,1.771.689c.787-.2,2.262-.59,3.246-.885,1.869-.492,1.771-.393-.2,2.459-1.18,1.672-2.164,3.541-2.164,4.23,0,2.066,1.967-.1,4.328-4.82,1.377-2.557,3.443-5.115,4.82-5.705,2.262-1.082,2.459-.984,3.541,4.23,1.082,4.721,2.459,7.181,3.541,6.1.2-.2-.59-2.951-1.672-6.2-1.771-5.508-1.869-5.9-.2-7.082a11.84,11.84,0,0,1,2.754-1.574c.59-.2.787-.787.393-1.18s-1.377-.2-2.262.492c-2.164,1.869-2.853.59-3.541-6.2C28.034-58.723,27.837-59.117,27.148-56.559Zm-.492,12.591c-1.771,1.771-2.262.1-.885-2.853,1.279-2.754,1.279-2.754,1.574-.492A4.393,4.393,0,0,1,26.657-43.969Z" fill="#7bbe4a"/>
    <path id="Path_50" data-name="Path 50" d="M36.591-54.4c-1.082,2.853-.59,17.214.689,20.361,1.771,4.328,2.459,2.262,1.082-3.443a38.015,38.015,0,0,1-.59-11.8C38.362-55.969,37.969-57.74,36.591-54.4Z" fill="#7bbe4a"/>
    <path id="Path_51" data-name="Path 51" d="M41.706-39.837c-2.262,3.443-.3,6.787,3.639,6.2,1.967-.3,2.853,0,2.853.885a1.209,1.209,0,0,0,1.082,1.279c.59,0,.787-.689.492-1.574a21.7,21.7,0,0,1-.59-5.213c0-3.443-.2-3.738-2.951-3.836A4.677,4.677,0,0,0,41.706-39.837Zm5.607,1.082c1.082,1.377.984,1.771-.59,2.951-2.361,1.771-3.344,1.771-4.033-.1-.59-1.475,1.082-4.426,2.557-4.426A4.175,4.175,0,0,1,47.313-38.755Z" fill="#7bbe4a"/>
    <path id="Path_52" data-name="Path 52" d="M52.428-41.608c-2.262.885-1.475,4.131,1.18,4.82,3.541.885,3.148,2.754-.492,2.066-2.262-.492-2.754-.3-2.262.787.885,2.557,7.181,1.574,7.181-1.082,0-.787-1.082-1.967-2.459-2.557-2.951-1.377-3.246-2.754-.492-2.754,1.082,0,1.967-.492,1.967-.984C57.051-42.3,54.494-42.493,52.428-41.608Z" fill="#7bbe4a"/>
    <path id="Path_53" data-name="Path 53" d="M96.692-36.69c.2,2.951-1.475,3.443-5.705,1.672-1.771-.689-1.771-.59-.59.885,1.771,2.164.689,4.623-2.066,4.623-1.672,0-1.869.3-.984,1.18,1.771,1.771,6.492-.689,5.8-3.049-.3-1.377,0-1.672,1.672-1.377a3.487,3.487,0,0,0,4.033-4.623C97.971-40.231,96.5-39.837,96.692-36.69Z" fill="#7bbe4a"/>
    <path id="Path_54" data-name="Path 54" d="M19.968-27.345c-4.426,2.164-6.689,12.984-3.639,17.312,1.771,2.557,7.279,2.951,9.148.787,1.082-1.279,1.475-1.18,3.148.492,2.164,2.164,3.148,2.262,5.9.885,2.853-1.574,2.557-7.574-.492-8.951a5,5,0,0,0-6.885,2.853c-.492,1.475-5.312,5.115-6.787,5.115A5.226,5.226,0,0,1,18.3-10.427c-3.738-3.639-.393-15.64,4.328-15.64,1.771,0,2.361.492,2.164,1.672-.3,2.164,1.377,2.361,2.164.3.59-1.574-1.869-4.426-3.639-4.328A9.929,9.929,0,0,0,19.968-27.345Zm14.46,13.082c1.771,2.164.787,4.918-1.869,4.918-3.148,0-4.82-2.754-3.148-4.82C31.083-16.132,32.854-16.132,34.427-14.263Z" fill="#7bbe4a"/>
    <path id="Path_55" data-name="Path 55" d="M94.725-21.148c0,.787.393,1.18.885.885a1.083,1.083,0,0,0,.3-1.475C95.02-23.017,94.725-22.82,94.725-21.148Z" fill="#7bbe4a"/>
    <path id="Path_56" data-name="Path 56" d="M37.378-14.066c0,3.541.3,6.2.689,5.8,1.18-1.082,1.475-12.394.3-12.394C37.772-20.656,37.378-17.9,37.378-14.066Z" fill="#7bbe4a"/>
    <path id="Path_57" data-name="Path 57" d="M63.346-17.017a59.2,59.2,0,0,1,.59,6.885c0,3.049.2,3.148,3.541,2.853,1.967-.1,3.935-.885,4.426-1.672.689-1.082.885-1.082.885.3,0,.984.393,1.771.787,1.771.492,0,.885-2.656.885-5.9.1-3.246-.3-5.9-.787-5.9-.59,0-.885.59-.787,1.18.393,3.246-.2,3.639-2.164,1.672-1.279-1.279-2.656-1.771-3.935-1.377-1.475.492-1.869.2-1.869-1.377,0-1.18-.492-2.066-1.082-2.066C63.051-20.656,62.855-19.378,63.346-17.017Zm6.885,2.853c1.869,1.869,1.967,2.557.393,4.131C68.363-7.771,65.9-8.656,65.9-11.607,65.9-15.935,67.576-16.919,70.232-14.164Z" fill="#7bbe4a"/>
    <path id="Path_58" data-name="Path 58" d="M41.313-15.738A6.615,6.615,0,0,0,39.346-12.3c0,1.672,3.443,5.41,4.918,5.41.59,0,2.164-1.082,3.443-2.459,2.262-2.164,2.459-2.262,2.459-.492,0,1.082.393,1.967.984,1.967.492,0,.689-1.18.393-2.754-.492-3.049.787-5.705,2.459-4.721.59.393,1.082,2.262,1.082,4.131,0,4.23,1.771,4.426,2.164.2q.3-3.246,2.066-3.541c1.377-.3,1.672.393,1.672,3.738,0,2.459.393,3.836.984,3.443,1.475-.885,1.18-5.705-.393-7.967-1.18-1.574-1.771-1.672-3.443-.689-1.475.984-2.164.885-2.951-.1a5.13,5.13,0,0,0-3.639-1.377c-2.164,0-2.459.393-1.967,2.361l.59,2.262L47.8-15.246C44.854-18.2,43.87-18.3,41.313-15.738Zm5.9,2.066c1.377,2.361-.2,4.82-3.049,4.82A3.14,3.14,0,0,1,41.9-14.164C43.969-16.328,45.936-16.132,47.215-13.673Z" fill="#7bbe4a"/>
    <path id="Path_59" data-name="Path 59" d="M77.9-16.624c-5.115,1.869-2.853,8.558,2.656,7.771a2.49,2.49,0,0,1,2.164,1.082C84-5.705,84.3-6.984,83.806-12.492,83.413-17.8,82.626-18.394,77.9-16.624Zm4.131,3.148c.787,1.279.689,1.967-.393,2.656-3.443,2.164-6.394-.492-3.935-3.443C79.183-16.033,80.56-15.738,82.036-13.476Z" fill="#7bbe4a"/>
    <path id="Path_60" data-name="Path 60" d="M84.691-16.132c-.1,3.344,1.082,8.263,1.967,8.263.492,0,.885-1.475.885-3.344,0-6.3,4.426-5.115,5.115,1.377.393,3.443.393,3.443,1.475.984.689-1.377,1.18-1.967,1.18-1.377.1,1.771,2.951,2.459,5.017,1.377,1.377-.787,1.967-.59,2.262.787.3.885.492-.885.59-3.935l.1-5.607-3.148.393a7.956,7.956,0,0,0-4.82,2.557l-1.574,2.164-.59-2.164c-.59-2.262-4.918-2.951-6.2-.885-.492.787-.984.59-1.475-.787C84.79-18.1,84.691-18.1,84.691-16.132Zm16.132,3.344c0,2.853-3.148,4.033-4.033,1.574-.885-2.361.393-4.721,2.262-4.328C100.233-15.345,100.823-14.361,100.823-12.787Z" fill="#7bbe4a"/>
    <path id="Path_61" data-name="Path 61" d="M107.02-17.017c-2.754.689-2.164,4.131.885,5.312,1.869.689,2.262,1.279,1.475,2.066s-1.475.787-2.656-.2c-1.672-1.377-3.049-.787-1.967.885.689,1.18,3.443,1.377,5.8.492,2.557-.984,1.771-3.344-1.377-4.426-3.148-1.18-3.148-2.853.1-2.853,1.082,0,1.672-.492,1.377-.984C110.069-17.706,109.774-17.8,107.02-17.017Z" fill="#7bbe4a"/>
  </g>
</svg>
